<?xml version="1.0" encoding="UTF-8" standalone="no"?>
<svg width="12px" height="15px" viewBox="0 0 12 15" version="1.1" xmlns="http://www.w3.org/2000/svg" xmlns:xlink="http://www.w3.org/1999/xlink">
    <!-- Generator: Sketch 3.8.2 (29753) - http://www.bohemiancoding.com/sketch -->
    <title>apple-logo</title>
    <desc>Created with Sketch.</desc>
    <defs></defs>
    <g id="Page-1" stroke="none" stroke-width="1" fill="none" fill-rule="evenodd">
        <g id="#6-App" transform="translate(-981.000000, -48.000000)" fill="#FFFFFF">
            <g id="Button" transform="translate(958.000000, 41.000000)">
                <path d="M32.7361879,14.7412455 C32.7203837,12.9814091 34.1743751,12.1252429 34.2408619,12.0853831 C33.4174058,10.8824915 32.141076,10.7181382 31.6925622,10.7050336 C30.6205977,10.5920066 29.5807868,11.3477042 29.0347226,11.3477042 C28.4777588,11.3477042 27.6368635,10.7159541 26.7305713,10.7345189 C25.5643263,10.7525377 24.4732878,11.4290619 23.874906,12.4796127 C22.6399943,14.6216662 23.5610008,17.7694965 24.74414,19.5009396 C25.3359821,20.3489154 26.0275544,21.2957216 26.9327567,21.2624141 C27.81834,21.2258305 28.1491393,20.6967329 29.2178339,20.6967329 C30.276719,20.6967329 30.5873543,21.2624141 31.5105408,21.2411192 C32.4609759,21.2258305 33.0593577,20.3893212 33.6304907,19.5337011 C34.3144335,18.5617778 34.5891005,17.6045971 34.6,17.5554549 C34.5776561,17.5478106 32.7541721,16.8505375 32.7361879,14.7412455 Z M30.9922702,9.56602684 C31.4685777,8.96922224 31.7944724,8.15728406 31.7040066,7.33333333 C31.0146142,7.3639107 30.1524648,7.81110463 29.6559933,8.39480464 C29.216744,8.90915957 28.8243625,9.75222114 28.9257277,10.5450485 C29.7001362,10.6029271 30.4952537,10.153549 30.9922702,9.56602684 Z" id="apple-logo"></path>
            </g>
        </g>
    </g>
</svg>