<?xml version="1.0" encoding="UTF-8" standalone="no"?>
<svg width="313px" height="610px" viewBox="0 0 313 610" version="1.1" xmlns="http://www.w3.org/2000/svg" xmlns:xlink="http://www.w3.org/1999/xlink">
    <!-- Generator: Sketch 3.8.2 (29753) - http://www.bohemiancoding.com/sketch -->
    <title>signup-arrow-group</title>
    <desc>Created with Sketch.</desc>
    <defs>
        <polygon id="path-1" points="55.8235 50.945353 55.8235 0.175767507 0.388665069 0.175767507 0.388665069 50.945353 55.8235 50.945353"></polygon>
    </defs>
    <g id="Page-1" stroke="none" stroke-width="1" fill="none" fill-rule="evenodd">
        <g id="#6-App" transform="translate(-214.000000, -47.000000)">
            <g id="signup-arrow-group" transform="translate(214.000000, 42.000000)">
                <g id="white-arrow-up" transform="translate(32.500000, 580.000000) scale(1, -1) translate(-32.500000, -580.000000) translate(0.000000, 549.000000)">
                    <g id="Page-1">
                        <g id="Group-3" transform="translate(9.000000, 0.000000)">
                            <mask id="mask-2" fill="white">
                                <use xlink:href="#path-1"></use>
                            </mask>
                            <g id="Clip-2"></g>
                            <path d="M1.6012,50.6329 C5.9757,42.7474 10.2352,35.3539 16.4242,28.6974 C20.5462,24.2649 25.5337,19.8159 30.0587,16.5779 C34.2462,13.5814 38.6512,10.8129 43.2237,8.4449 C45.1387,7.4534 47.1027,6.5634 49.1937,6.0164 C49.3112,5.9859 50.4622,5.7934 49.9787,5.8454 C50.1402,5.8284 51.2432,5.8894 50.4922,5.7789 C51.1782,5.8799 50.7192,5.8609 50.3272,5.5419 C50.2402,5.4709 50.4597,5.7854 50.3612,5.5429 C51.5057,8.3694 55.6797,8.1054 55.8172,4.8044 C56.0782,-1.4821 48.3142,-0.0231 44.7412,1.4709 C39.0997,3.8299 33.8952,7.2259 28.9567,10.8004 C23.5907,14.6844 18.6467,19.1809 14.1617,24.0494 C7.7342,31.0259 0.7832,40.4489 0.3892,50.3044 C0.3632,50.9534 1.2922,51.1904 1.6012,50.6329" id="Fill-1" fill="#FFFFFF" mask="url(#mask-2)"></path>
                        </g>
                        <g id="Group-6" transform="translate(0.000000, 43.000000)" fill="#FFFFFF">
                            <path d="M7.6931,18.65115 C8.1231,19.18715 8.9346,19.03965 9.3861,18.65115 C13.5366,15.08015 16.1191,10.03265 19.6361,5.90115 C20.3376,5.07715 19.2576,3.97115 18.4431,4.70765 C14.3796,8.38315 11.6376,13.16415 7.6931,16.95765 L9.3861,16.95765 C5.2176,12.31265 3.8201,5.97365 0.9951,0.53865 C0.7216,0.01315 -0.1774,0.38115 0.0311,0.94465 C2.2696,6.98715 3.5731,13.51615 7.6931,18.65115 Z" id="Fill-4"></path>
                        </g>
                    </g>
                </g>
                <text id="Never-expect-to-lose" font-family=".HelveticaNeueDeskInterface-Regular, .Helvetica Neue DeskInterface" font-size="24" font-weight="normal" fill="#FFFFFF">
                    <tspan x="83" y="23">Never expect to lose.</tspan>
                </text>
                <text id="X" font-family="HanziPenSC-W5, HanziPen SC" font-size="24" font-weight="bold" fill="#DCDCDC">
                    <tspan x="66" y="614">X</tspan>
                </text>
            </g>
        </g>
    </g>
</svg>