<?xml version="1.0" encoding="utf-8"?>
<!-- Generator: Adobe Illustrator 19.1.0, SVG Export Plug-In . SVG Version: 6.00 Build 0)  -->
<svg version="1.1" id="Layer_1" xmlns="http://www.w3.org/2000/svg" xmlns:xlink="http://www.w3.org/1999/xlink" x="0px" y="0px"
	 viewBox="0 0 960 560" style="enable-background:new 0 0 960 560;" xml:space="preserve">
<style type="text/css">
	.st0{fill:#231F20;}
</style>
<g>
	<polyline class="st0" points="272.8,95.8 332,95.8 332,125.4 	"/>
	<polyline class="st0" points="687.2,95.8 628,95.8 628,125.4 	"/>
	<path class="st0" d="M509.6,331.9"/>
	<polygon class="st0" points="628,182.9 568.8,182.9 568.8,182.9 509.6,182.9 450.4,182.9 450.4,242.2 450.4,242.2 450.4,331.9 
		450.4,332.2 450.4,332.2 480,346.7 509.6,332.2 509.6,332.2 509.6,331.9 509.6,242.2 509.6,242.2 568.8,242.2 568.8,242.2 
		628,242.2 628,301.4 628,360.5 628,360.5 628,390.2 628,390.2 568.8,419.8 568.8,419.8 480,464.2 450.4,449.4 391.2,419.8 
		391.2,419.8 332,390.2 332,360.5 332,331 332,301.4 332,301.4 332,271.8 332,242.2 332,242.2 332,212.6 332,182.9 272.8,153.3 
		272.8,182.9 272.8,182.9 272.8,212.6 272.8,242.2 272.8,242.2 272.8,271.8 272.8,301.4 272.8,301.4 272.8,331 272.8,360.5 
		272.8,390.2 272.8,419.8 272.8,419.8 332,449.4 332,449.4 391.2,479 391.2,479 480,523.4 568.8,479 568.8,479 628,449.4 628,449.4 
		687.2,419.8 687.2,390.2 687.2,360.5 687.2,360.5 687.2,301.4 687.2,242.2 687.2,242.2 687.2,182.9 	"/>
	<polygon class="st0" points="628,36.6 568.8,36.6 509.6,36.6 450.4,36.6 391.2,36.6 332,36.6 272.8,36.6 272.8,95.8 332,95.8 
		391.2,95.8 450.4,95.8 450.4,151.9 450.4,93.7 450.4,93.7 450.4,152.9 509.6,152.9 509.6,93.7 509.6,93.7 509.6,151.9 509.6,95.8 
		568.8,95.8 628,95.8 687.2,95.8 687.2,36.6 	"/>
</g>
</svg>
